/* XPM */
static char *_94a21c74a2c4092daa714ab743e3863[] = {
/* columns rows colors chars-per-pixel */
"128 128 22 1 ",
"  c None",
". c #2F2F2F",
"X c #333333",
"o c #016CD7",
"O c #016EDC",
"+ c #0270DE",
"@ c #0073E6",
"# c #0976E4",
"$ c #0C79E6",
"% c #0376E9",
"& c #0679EC",
"* c #097BEE",
"= c #117FED",
"- c #0B7EF1",
"; c #1581EE",
": c #0E81F4",
"> c #1183F6",
", c #1986F4",
"< c #1988F7",
"1 c #1486F9",
"2 c #1689FC",
"3 c #1A8CFF",
/* pixels */
"                                                                                                                                ",
"                                                                                                                                ",
"                                                                                                                                ",
"                                                                                                                                ",
"                                                                                                                                ",
"                                                                                                                                ",
"                                                               33                                                               ",
"                                                               33                                                               ",
"                                                              3333                                                              ",
"                                                              3333                                                              ",
"                                                             333333                                                             ",
"                                                            3333333                                                             ",
"                                                            33333333                                                            ",
"                                                           3333333333                                                           ",
"                                                           3333333333                                                           ",
"                                                          333333333333                                                          ",
"                                                          333333333333                                                          ",
"                                                         33333333333333                                                         ",
"                                                        3333333333333333                                                        ",
"                                                        3333333333333333                                                        ",
"                                                       333333333333333333                                                       ",
"                                                       333333333333333333                                                       ",
"                                                      33333333333333333333                                                      ",
"                                                      33333333333333333333                                                      ",
"                                                     3333333333333333333333                                                     ",
"                                                    33333333333333333333333                                                     ",
"                                                    33333333333333333333333                                                     ",
"                                                   333333333333333333333333                                                     ",
"                                                   33333333333333333333333                                                      ",
"                                                  333333333333333333333333                                                      ",
"                                                  33333333333333333333333                                                       ",
"                                                 33333333333333333333333                                                        ",
"                                                33333333333333333333333<                                                        ",
"                                                33333333333333333333333                                                         ",
"                                               <3333333333333333333333<        3<                                               ",
"                                               33333333333333333333333         33                                               ",
"                                              <3333333333333333333333         3331                                              ",
"                                             ,3333333333333333333333<        ,2223                                              ",
"                                             33333333333333333333333         222221                                             ",
"                                            <3333333333333333333333<        <222221,                                            ",
"                                            3333333333333333333333<         32222121                                            ",
"                                           <3333333333333333333333<        112212111,                                           ",
"                                           33333333333333333333333        ;2<21111111                                           ",
"                                          33333333333333333333333         12212111111>                                          ",
"                                         ,3333333333333333333333<        ><111111>1>>>=                                         ",
"                                         33333333333333333332322         112111111>>>1>                                         ",
"                                        <3333333333333333333233,        >11111>1>1>>>>>*                                        ",
"                                        3333333333333333333332<         1111>111>>>>>>>>                                        ",
"                                       33333333333333333232322>        >111>111:1>>:>::::                                       ",
"                                       33333333333333333332231        ;11>1>>::1>::>>::::                                       ",
"                                      33333333333333332231321         >11>11111::>::::::>-                                      ",
"                                     ,333333333333332322131<,        >11>>>>::>:::::::::-:*                                     ",
"                                     33333333333323222322221         11>:1:1:>:>::::*::*-:*                                     ",
"                                    33333333233223222222221>        >,>>1:1:>:::::::::::---*                                    ",
"                                    33333333322332222222<11         >1>1::1::::::::::**:---*                                    ",
"                                   33333233323322222221111=        1>:::1::::::::*:*::::---**                                   ",
"                                   3333233232232222221211>        -:1:::::::::-:*::*:****:**:                                   ",
"                                  33333323222222222111111         >1:>::::-:::--::*::*:*****&*                                  ",
"                                 ,3333323222222222211111>        =>:::::::-:-::-:**:*:*******&#                                 ",
"                                 3333223232222121111111>         >>:::::::-:----*:**********&*&                                 ",
"                                <3323232222211211121>11;        :::::::::-------****:*****&*%&&$                                ",
"                                3323222222221211111>1>>        $:>::-::---------:*:*&***&&&&%:&%                                ",
"                               <33<2222222211111>111>>         :::-::-:------*-*****&**&*&&&$%+;<                               ",
"                              ;33<322221111111111>>>>>        =::::-:-------*-*******&&&&&&&;+$;;,                              ",
"                              222222212111111111>>>>>         ::--:-----*--&-******&&*&&&%&&%*%%%%                              ",
"                             ,22222122111111:1>111>>=        --:-:-------*-*******%*&&%*&&&%%%%%%%@                             ",
"                             221222111111111111:>>>>         -------*--***-****&*%%*&&%&&%%%%%%%%%@                             ",
"                            ,2222121111111:11:>:>:>*        -:--------****&**&***%**%&&%%&%%%%@%@@%@                            ",
"                            221211111111:11:>>:1:>-        $------*-**********&&*%%%*%%%%%%%%@%@@@%@                            ",
"                           121211111:11:1:1:1:>::>         --------*******&&&&&&*%*%%%%%%%%@%%@@%@@@@                           ",
"                          >111111:1111:11::1>>::>:        $--*---*-*****&*&&&&&&*%*%%%%%%%@%@@%@@@@@@o                          ",
"                          1<11111111:111:1::::>>-         ----********&&&&&&%&&&%%%%%%%%%%@%@@@@@@@@@@                          ",
"                         >11111111:1:1::>>:>:::-$        ---*-*********%&&&&&&%%%%%%%%%%%@@@@@@@@@@@@@+                         ",
"                         1,111111:1:1::1>:::>->-         --*****&**%*%**&&%&%%&%%%%%%@@@@@@@@@@@@@@@@@@                         ",
"                        >11111>1:1:11:::>::---:$        ***-*****&**%**%&&%&%%% +%@%@@@%@@@@@@@@@@@@@@@+                        ",
"                        111::1>:1:1::::1:::>::-        #*-****%**&*%*%%*&%&%%%@  @%@@%@@@@@@@@@@@@@@@@@@                        ",
"                       ,1:11:1:1:1:1::::->-:>-         -**&&*&**%&&%%*%%%%%%%%   o%@@@@@@@@@@@@@@@@@@@@@@                       ",
"                      =111:11>>>:::::::::---**        &-****&*%%*&&&*%%%%%%%%@    @@@@@@@@@@@@@@@@@@@@@@@O                      ",
"                      >>1::1::::::::::::->:--         ****&**%**%*%%%%%%%%%%%      @@@@@@@@@@@@@@@@@@@@@@@                      ",
"                     ->11:1::11:1::-::------$        &*&&&*&&&%%&%%&%%%%%%@%o      @@@@@@@@@@@@@@@@@@@@@@@@                     ",
"                     11:>>>:>::::::--:-----*         **%**%*%*%*%%%%%%%@%%@@        @@@@@@@@@@@@@@@@@@@@@@@                     ",
"                    >>>:>:::::::-::--------&        *****%%%*%%%&%%%%%%%@@@         O@@@@@@@@@@@@@@@@@@@@@@@                    ",
"                    >:>>1:>::::::---------*        @&&&%*%*%*%%%%%%%%%@@@%@          @@@@@@@@@@@@@@@@@@@@@@@                    ",
"                   -:>>::::::-:--:----*--*         *%**%%*%%%%%%%%%@@@@%@@            @@@@@@@@@@@@@@@@@@@@@@@                   ",
"                  -1:::::::-:--:-----*-***        %*&&&&%%%%%%%@%%@@@%@@@O            @@@@@@@@@@@@@@@@@@@@@@@O                  ",
"                  1::::::-:--:-------****         *%&&%%*%%%%%%%%@@@@@@@@              @@@@@@@@@@@@@@@@@@@@@@@                  ",
"                 ::::::::-::-------*****#        %%*%%%%%%%%%%@@@@@@@@@@o              @@@@@@@@@@@@@@@@@@@@@@@+                 ",
"                 ::::::------------*****        +&&%%&%%%%%@%@@%@@@@@@@@                @@@@@@@@@@@@@@@@@@@@@@@                 ",
"                -::::--:-----*--*******         %&%&%%%%%%%%@@@@@@@@@@@                 O@@@@@@@@@@@@@@@@@@@@@@+                ",
"               $:-:::--:---*--******&**        @%%%%%%%@@@@@@@@@@@@@@@+        XX        @@@@@@@@@@@@@@@@@@@@@@@o               ",
"               >:::--:------********&*         %%%%%%%@%@%@@@@@@@@@@@@         XX         @@@@@@@@@@@@@@@@@@@@@@@               ",
"              $--:-----*---**-****&*&#        @&%%%%%%@%@@@@@@@@@@@@@O        XXXX        @@@@@@@@@@@@@@@@@@@@@@@O              ",
"              >--:---**-********&&*&%         %%%@%@@@@@@@@@@@@@@@@@@        .XXXX         @@@@@@@@@@@@@@@@@@@@@@@              ",
"             *----------****&*&&*&&&#        #%%%%@%%%@@@@@@@@@@@@@@         XXXXXX        @@@@@@@@@@@@@@@@@@@@@@@@             ",
"             -----*--********&**%*&%        O%%@%@@@@@@@@@@@@@@@@@@@        XXXXXXX         @@@@@@@@@@@@@@@@@@@@@@@             ",
"            =---*---******&*&*&%*%*         @%%@@%@@@@@@@@@@@@@@@@@         XXXXXXXX        O@@@@@@@@@@@@@@@@@@@@@@@            ",
"           $--*---**-&*-&&&&&&&&&&%        @%@@%@@@@@@@@@@@@@@@@%%#        XXXXXXXXXX        @@@@@@@@@@@@@@@@@@@@@@@o           ",
"           *----*****&&**&&&&&&&&%         @@@@@@@@@@@@@@@@@@@@@@%         XXXXXXXXXX         @@@@@@@@@@@@@@@@@@@@@@@           ",
"          &---********&&&&&&&&&%%%OOOoOooo@%@@@@@@@@@@@@@@@@@@@@@O        XXXXXXXXXXXX        @@@@@@@@@@@@@@@@@@@@@@@+          ",
"          *****-*&**&*&&&&&&&%%&%%@%%%%%%%@@@@@@@@@@@@@@@@@@@@@@@        XXXXXXXXXXXXX         @@@@@@@@@@@@@@@@@@@@@@@          ",
"         *--******&&*&&&*%*%%%&%%%%%@%@%%@@@@@@@@@@@@@@@@@@@@@@@         XXXXXXXXXXXXXX        @@@@@@@@@@@@@@@@@@@@@@@@         ",
"         *-*****&&&*&&&&%&%%%%%%%@@%%%@@@@@@@@@@@@@@@@@@@@@@@@@@        XXXXXXXXXXXXXXX.        @@@@@@@@@@@@@@@@@@@@@@@         ",
"        *******%&*&&&&&&%%%%%%%%%%@%@@@@@@@@@@@+@@@@@@@@@@@@@@@         XXXXXXXXXXXXXXXX        O@@@@@@@@@@@@@@@@@@@@@@@        ",
"       #*&*&*&**&&%&&%%%&%%%%@%%@%@@@@@@@@@@@@@@@@@@@@@@@@@@@@+        XXXXXXXXXXXXXXXXXX        @@@@@@@@@@@@@@@@@@@@@@@O       ",
"       ***%**%*%&&&&%&%%%%%%@%@@%@@@@@@@@@@@@@@@@@@@@@@@@@@@@@         XXXXXXXXXXXXXXXXXX         @@@@@@@@@@@@@@@@@@@@@@@       ",
"      **&**&**%*&&%%%%%%%%%%%@@%@@@@@@@@@@@@@@@@@@@@@@@@@@@@@o        XXXXXXXXXXXXXXXXXXXX        @@@@@@@@@@@@@@@@@@@@@@@@      ",
"      &***%**%%&%%&%%%%%%%@@%@@@@@@@@@@@@@@@@@@@@@@@@@@@@@@@@        XXXXXXXXXXXXXXXXXXXXX         @@@@@@@@@@@@@@@@@@@@@@@      ",
"     %*&%%*%%%*&%&%%%%@%%@%@@@@@@@@@@@@@@@@@@@@@@@@@@@@@@@@@         XXXXXXXXXXXXXXXXXXXXXX        +@@@@@@@@@@@@@@@@@@@@@@@     ",
"     ****&%*%%%%%%%%%@%%@%@@@@@@@@@@@@@@@@@@@@@@@@@@@@@@@@%@        XXXXXXXXXXXXXXXXXXXXXXXX        @@@@@@@@@@@@@@@@@@@@@@@     ",
"    %*%*&%*%&%%%%%%%%@@@@@@@@@@@@@@@@@@@@@@@@@@@@@@@@@@@@@@         XXXXXXXXXXXXXXXXXXXXXXXX         @@@@@@@@@@@@@@@@@@@@@@@    ",
"   @**%%%%%%%%%%%@%@@%%@@@@@@@@@@@@@@@@@@@@@@@@@@@@@@@@@@@O        XXXXXXXXXXXXXXXXXXXXXXXXXX        @@@@@@@@@@@@@@@@@@@@@@@O   ",
"   *%%*%%&&%%%%%%%%@@@@@@@@@@@@@@@@@@@@@@@@@@@@@@@@@@@@@@@        .XXXXXXXXXXXXXXXXXXXXXXXXXX         @@@@@@@@@@@@@@@@@@@@@@@   ",
"  %**%%%%%%%%%%%@%@@@@%@@@@@@@@@@@@@@@@@@@@@@@@@@@@@@@@@%+        XXXXXXXXXXXXXXXXXXXXXXXXXXXX        @@@@@@@@@@@@@@@@@@@@@@@@  ",
"  %%%*%%%%%%@%@@@@@@@@@@@@@@@@@@@@@@@@@@@@@@@@@@@@@@@@@@@        XXXXXXXXXXXXXXXXXXXXXXXXXXXXX         @@@@@@@@@@@@@@@@@@@@@@@  ",
" %*%%%%%%%%@%@%@@@@@@@@@@@@@@@@@@@@@@@@@@@@@@@@@@@@@@@@@         XXXXXXXXXXXXXXXXXXXXXXXXXXXXXX        +@@@@@@@@@@@@@@@@@@@@@@@ ",
"%%%%%%%%@%%@%@@@@@@@@@@@@@@@@@@@@@@@@@@@@@@@@@@@@@@@@@@@        XXXXXXXXXXXXXXXXXXXXXXXXXXXXXXXX        @@@@@@@@@@@@@@@@@@@@@@@O",
"                                                                                                                                ",
"                                                                                                                                ",
"                                                                                                                                ",
"                                                                                                                                ",
"                                                                                                                                ",
"                                                                                                                                ",
"                                                                                                                                ",
"                                                                                                                                ",
"                                                                                                                                ",
"                                                                                                                                ",
"                                                                                                                                ",
"                                                                                                                                "
};
