/* XPM */
static char *_d11993399134962edcd7cd8220b12a5[] = {
/* columns rows colors chars-per-pixel */
"32 32 123 2 ",
"   c None",
".  c gray19",
"X  c #313131",
"o  c #323232",
"O  c gray20",
"+  c #006EDB",
"@  c #016FDC",
"#  c #006FDE",
"$  c #006FDF",
"%  c #0070E0",
"&  c #0070E1",
"*  c #0071E1",
"=  c #0071E2",
"-  c #0171E2",
";  c #0071E3",
":  c #0072E3",
">  c #0272E2",
",  c #0273E3",
"<  c #0774E2",
"1  c #0072E4",
"2  c #0072E5",
"3  c #0073E5",
"4  c #0073E6",
"5  c #0173E6",
"6  c #0174E6",
"7  c #0174E7",
"8  c #0374E6",
"9  c #0375E7",
"0  c #0574E4",
"q  c #0474E5",
"w  c #0776E4",
"e  c #0476E7",
"r  c #0776E6",
"t  c #0875E2",
"y  c #0174E8",
"u  c #0275E8",
"i  c #0376E8",
"p  c #0376E9",
"a  c #0476E9",
"s  c #0477EA",
"d  c #0577EA",
"f  c #0577EB",
"g  c #0578EB",
"h  c #0678EA",
"j  c #0678EB",
"k  c #0778EB",
"l  c #0679EC",
"z  c #0779EC",
"x  c #077AED",
"c  c #097AEB",
"v  c #0E7CEA",
"b  c #087AED",
"n  c #0A7BEC",
"m  c #0B7BEC",
"M  c #087BEE",
"N  c #097BEE",
"B  c #097BEF",
"V  c #097CEE",
"C  c #097CEF",
"Z  c #0B7DEE",
"A  c #0A7CEF",
"S  c #0A7DEF",
"D  c #0C7CEC",
"F  c #0C7CED",
"G  c #0F7DEC",
"H  c #0F7EEC",
"J  c #0A7DF0",
"K  c #0B7DF0",
"L  c #0B7EF1",
"P  c #0C7EF1",
"I  c #0E7FF1",
"U  c #0C7FF2",
"Y  c #0D7FF2",
"T  c #0D80F3",
"R  c #0E80F2",
"E  c #0E80F3",
"W  c #0E81F4",
"Q  c #0F81F4",
"!  c #0F82F5",
"~  c #1281F0",
"^  c #1181F2",
"/  c #1082F4",
"(  c #1182F4",
")  c #1082F5",
"_  c #1182F5",
"`  c #1083F6",
"'  c #1183F6",
"]  c #1384F5",
"[  c #1184F7",
"{  c #1284F7",
"}  c #1685F5",
"|  c #1484F6",
" . c #1585F6",
".. c #1686F7",
"X. c #1787F7",
"o. c #1986F4",
"O. c #1886F5",
"+. c #1285F8",
"@. c #1385F8",
"#. c #1386F9",
"$. c #1486F9",
"%. c #1587F9",
"&. c #1487FA",
"*. c #1587FA",
"=. c #1588FB",
"-. c #1688FB",
";. c #1689FC",
":. c #1789FC",
">. c #178AFD",
",. c #1988F8",
"<. c #1989F9",
"1. c #1889FB",
"2. c #1A89FA",
"3. c #1A8AFB",
"4. c #1889FC",
"5. c #188AFD",
"6. c #1A8AFC",
"7. c #1A8BFC",
"8. c #1A8BFD",
"9. c #198BFE",
"0. c #1A8BFE",
"q. c #1A8CFE",
"w. c #1A8CFF",
/* pixels */
"                                                                ",
"                                                                ",
"                              <.<.                              ",
"                              q.q.                              ",
"                            2.w.w.2.                            ",
"                            w.w.w.w.                            ",
"                          6.w.w.w.w.3.                          ",
"                        o.w.w.w.w.q.                            ",
"                        8.w.w.w.w.<.                            ",
"                      ,.w.w.w.w.0.    X...                      ",
"                      q.w.w.w.w.o.    *.$.                      ",
"                    3.w.w.w.9.1.    | #.{ ^                     ",
"                    w.w.9.5.:.      +.' ) Q                     ",
"                  7.w.9.>.-. .    ( ` Q E U Z                   ",
"                O.9.5.;.*.$.    H ! E Y L J C w                 ",
"                4.:.=.$.@.~     R Y P J C M x h                 ",
"              } -.&.@.{ _     F U K C M x l d p >               ",
"              %.#.+.' ) v     K A M x l g a u 7 4               ",
"            ] @.[ ) Q I     n B x l g e 8 7 4 4 4 ;             ",
"            [ ` Q E Y     t b z g s i     4 4 4 4 4             ",
"          / ! W Y P m     k j s p u -     = 4 4 4 4 1           ",
"        G W T P K V     0 f p u 7 3         3 4 4 4 4 #         ",
"        Y U K A M r     p u 7 4 4 #         * 4 4 4 4 3         ",
"      D L J N x h     , y 4 4 4 1     o o     2 4 4 4 4 *       ",
"      S C b l g q   @ 5 4 4 4 4       O O     $ 4 4 4 4 4       ",
"    c M z j s p u 7 4 4 4 4 4 ;     o O O o     1 4 4 4 4 :     ",
"  < x l d p u 7 4 4 4 4 4 4 4     X O O O O .     4 4 4 4 4 +   ",
"  h g a u 7 4 4 4 4 4 4 4 4 &     O O O O O O     ; 4 4 4 4 1   ",
"0 a 9 6 3 2 2 2 2 2 2 2 2 1     X O O O O O O X     2 2 2 2 2 % ",
"                                                                ",
"                                                                ",
"                                                                "
};
