/* XPM */
static char *a5d3c5e2e7ef4ff6b7f370c5b0b0f5f8[] = {
/* columns rows colors chars-per-pixel */
"64 64 182 2 ",
"   c None",
".  c gray19",
"X  c #313131",
"o  c #323232",
"O  c gray20",
"+  c #006DD9",
"@  c #016DD9",
"#  c #006DDA",
"$  c #006DDB",
"%  c #006EDB",
"&  c #006EDC",
"*  c #006EDD",
"=  c #006FDE",
"-  c #006FDF",
";  c #0370DC",
":  c #0270DF",
">  c #0070E0",
",  c #0070E1",
"<  c #0071E1",
"1  c #0171E1",
"2  c #0071E2",
"3  c #0171E2",
"4  c #0071E3",
"5  c #0172E2",
"6  c #0072E3",
"7  c #0272E2",
"8  c #0373E3",
"9  c #0472E1",
"0  c #0573E2",
"q  c #0072E4",
"w  c #0072E5",
"e  c #0073E5",
"r  c #0173E5",
"t  c #0273E5",
"y  c #0073E6",
"u  c #0173E6",
"i  c #0073E7",
"p  c #0374E5",
"a  c #0174E6",
"s  c #0174E7",
"d  c #0274E7",
"f  c #0474E4",
"g  c #0775E4",
"h  c #0576E7",
"j  c #0977E5",
"k  c #0A78E5",
"l  c #0175E8",
"z  c #0275E8",
"x  c #0375E8",
"c  c #0376E8",
"v  c #0376E9",
"b  c #0476E9",
"n  c #0477E9",
"m  c #0577E9",
"M  c #0677E9",
"N  c #0476EA",
"B  c #0477EA",
"V  c #0577EA",
"C  c #0678E9",
"Z  c #0778E9",
"A  c #0578EB",
"S  c #0779EA",
"D  c #0678EB",
"F  c #0679EC",
"G  c #0779EC",
"H  c #077AED",
"J  c #0878E8",
"K  c #0978E8",
"L  c #0979E9",
"P  c #0879EA",
"I  c #0B7BEA",
"U  c #0E7BE9",
"Y  c #0D7BEA",
"T  c #0F7CE9",
"R  c #087AED",
"E  c #097BED",
"W  c #087BEE",
"Q  c #097BEE",
"!  c #0A7CED",
"~  c #0B7CED",
"^  c #097CEF",
"/  c #0A7CEE",
"(  c #0B7CEE",
")  c #0A7CEF",
"_  c #0A7DEF",
"`  c #0D7CEC",
"'  c #0C7CED",
"]  c #0E7DEC",
"[  c #0D7DEE",
"{  c #0E7EEF",
"}  c #107CEA",
"|  c #137FEC",
" . c #0A7DF0",
".. c #0B7DF0",
"X. c #0B7EF1",
"o. c #0C7EF0",
"O. c #0C7EF1",
"+. c #0D7FF1",
"@. c #0C7FF2",
"#. c #0D7FF2",
"$. c #1480ED",
"%. c #0D80F3",
"&. c #0E80F2",
"*. c #0F80F2",
"=. c #0E80F3",
"-. c #0F80F3",
";. c #0E81F4",
":. c #0F81F4",
">. c #0F81F5",
",. c #0F82F4",
"<. c #0F82F5",
"1. c #1181F1",
"2. c #1280F0",
"3. c #1381F0",
"4. c #1081F2",
"5. c #1081F3",
"6. c #1281F2",
"7. c #1582F0",
"8. c #1785F3",
"9. c #1082F5",
"0. c #1183F5",
"q. c #1283F4",
"w. c #1383F4",
"e. c #1082F6",
"r. c #1083F6",
"t. c #1183F6",
"y. c #1184F7",
"u. c #1284F6",
"i. c #1284F7",
"p. c #1384F7",
"a. c #1385F7",
"s. c #1585F5",
"d. c #1585F6",
"f. c #1485F7",
"g. c #1685F6",
"h. c #1586F7",
"j. c #1786F6",
"k. c #1786F7",
"l. c #1984F1",
"z. c #1985F3",
"x. c #1986F3",
"c. c #1986F4",
"v. c #1987F5",
"b. c #1887F6",
"n. c #1987F6",
"m. c #1887F7",
"M. c #1987F7",
"N. c #1988F7",
"B. c #1284F8",
"V. c #1285F8",
"C. c #1385F8",
"Z. c #1385F9",
"A. c #1386F9",
"S. c #1586F8",
"D. c #1486F9",
"F. c #1487FA",
"G. c #1587FA",
"H. c #1587FB",
"J. c #1588FB",
"K. c #1788FA",
"L. c #1688FB",
"P. c #1789FB",
"I. c #1688FC",
"U. c #1689FC",
"Y. c #1789FC",
"T. c #178AFD",
"R. c #1988F8",
"E. c #1989F9",
"W. c #1989FA",
"Q. c #1889FB",
"!. c #1A89FA",
"~. c #1A8AFB",
"^. c #1889FC",
"/. c #188AFD",
"(. c #1A8AFC",
"). c #1A8BFD",
"_. c #188BFE",
"`. c #198BFE",
"'. c #1A8BFE",
"]. c #198CFF",
"[. c #1A8CFE",
"{. c #1A8CFF",
/* pixels */
"                                                                                                                                ",
"                                                                                                                                ",
"                                                                                                                                ",
"                                                                                                                                ",
"                                                              ).).                                                              ",
"                                                            M.{.{.M.                                                            ",
"                                                            '.{.{.'.                                                            ",
"                                                          E.{.{.{.{.E.                                                          ",
"                                                          {.{.{.{.{.[.                                                          ",
"                                                        ~.{.{.{.{.{.{.~.                                                        ",
"                                                      l.{.{.{.{.{.{.{.{.x.                                                      ",
"                                                      ).{.{.{.{.{.{.{.{.).                                                      ",
"                                                    n.{.{.{.{.{.{.{.{.{.{.R.                                                    ",
"                                                    '.{.{.{.{.{.{.{.{.{.{.                                                      ",
"                                                  E.{.{.{.{.{.{.{.{.{.{.(.                                                      ",
"                                                  {.{.{.{.{.{.{.{.{.{.[.                                                        ",
"                                                (.{.{.{.{.{.{.{.{.{.{.E.                                                        ",
"                                              z.{.{.{.{.{.{.{.{.{.{.'.        m.b.                                              ",
"                                              ).{.{.{.{.{.{.{.{.{.{.v.        ^.P.                                              ",
"                                            N.{.{.{.{.{.{.{.{.{.{.).        k.Y.L.s.                                            ",
"                                            [.{.{.{.{.{.{.{.{.{.{.          L.L.G.D.                                            ",
"                                          !.{.{.{.{.{.{.{.{.{.].W.        h.H.G.D.A.q.                                          ",
"                                          {.{.{.{.{.{.{.{.{.`./.        $.G.D.A.C.V.i.                                          ",
"                                        (.{.{.{.{.{.{.{.`._./.j.        f.D.C.V.i.y.t.5.                                        ",
"                                      c.{.{.{.{.{.{.`.`./.T.K.        3.Z.C.i.y.t.9.<.:.U                                       ",
"                                      '.{.{.{.{.`.`././.Y.I.7.        p.i.y.t.r.9.:.;.=.+.                                      ",
"                                    R.{.{.{.`.`././.Y.U.L.S.        6.i.t.r.9.<.;.=.%.#.@.I                                     ",
"                                    [.{.{.`././.Y.Y.L.J.G.          t.r.9.<.:.=.%.#.@.O.X._                                     ",
"                                  ~.{.`._./.Y.Y.L.J.G.F.w.        5.e.<.:.;.=.#.@.O.X. .) ^ P                                   ",
"                                  `.`./.T.Y.L.L.G.F.D.C.        T <.:.;.=.%.@.O.X... .^ Q W R                                   ",
"                                Q./.T.Y.L.L.G.F.D.C.C.2.        -.;.=.%.#.O.X... .^ ^ W R H F M                                 ",
"                              8./.Y.U.L.G.G.D.A.C.B.0.        ] =.%.#.@.X... .) ^ W R H G F A A 9                               ",
"                              P.Y.L.G.G.D.A.C.V.i.t.}         #.#.@.O.X. .) ^ W W H G F A A B B x                               ",
"                            g.L.J.G.D.D.C.V.i.t.t.4.        [ @.O.X. .) ^ Q W H H F D A B B v z z 3                             ",
"                            G.G.F.D.C.V.i.y.t.9.,.          O.X... .^ Q W R H F D A B B v v z s s y                             ",
"                          d.F.D.C.C.i.y.t.r.9.>.{         ( .. .^ Q W R H F F A V B v v z d s y y y 4                           ",
"                        | D.A.C.i.i.t.r.9.:.;.&.        k  .) ^ W R H G F A A n v v z z s y y y y y y #                         ",
"                        a.C.V.i.t.r.9.<.:.=.%.Y         / ^ W W H G F A A B N ; : z s s y y y y y y y q                         ",
"                      2.V.i.t.t.9.<.:.;.%.#.o.        K Q W H G F D A B B v p     r y y y y y y y y y y =                       ",
"                      u.y.t.9.<.:.;.=.#.@.O.          R H H F D A B B v v z       + y y y y y y y y y y e                       ",
"                    1.t.r.9.:.;.=.%.#.O.X.~         Z H F F A V B v v z l 5         6 y y y y y y y y y y <                     ",
"                    9.9.:.;.=.%.#.@.X..._           G F A A B v v z z s y             y y y y y y y y y y y                     ",
"                  *.<.:.=.%.#.@.O... .) L         C A A B b v z z s u y -             2 y y y y y y y y y y 6                   ",
"                U :.;.%.#.@.O.X. .) ^ E         0 A B B v z z s s y y q                 e y y y y y y y y y y $                 ",
"                &.=.#.@.O.X... .^ Q W g         n B v x z s s y y y y %                 > y y y y y y y y y y q                 ",
"              ` %.@.O.X... .^ Q W R S         f v v z s s y y y y y 6         o X         w y y y y y y y y y y -               ",
"              +.@.X... .) ^ W R H G           x z z s y y y y y y y           O O         * y y y y y y y y y y e               ",
"            ' O... .) ^ W W H G F h         t z s u y y y y y y y <         o O O o         q y y y y y y y y y y 2             ",
"            .. .) ^ Q W H G F D V         @ s s y y y y y y y y e         . O O O O           y y y y y y y y y y y             ",
"          !  .^ Q W H H F D A B b 8 7 7 1 r y y y y y y y y y y =         O O O O O o         2 y y y y y y y y y y q           ",
"        j ^ Q W R H F F A V B v v z l s i y y y y y y y y y y q         X O O O O O O X         e y y y y y y y y y y &         ",
"        E W R H F F A V B v v z z s y y y y y y y y y y y y y #         O O O O O O O O         > y y y y y y y y y y w         ",
"      J W H G F A A B b v z z s y y y y y y y y y y y y y y 4         o O O O O O O O O X         q y y y y y y y y y y >       ",
"      H H F A A B B v z z s s y y y y y y y y y y y y y y y           O O O O O O O O O O           y y y y y y y y y y e       ",
"    Z F D A B B v x z s s y y y y y y y y y y y y y y y y ,         o O O O O O O O O O O o         6 y y y y y y y y y y 2     ",
"    D A V B v v z s s y y y y y y y y y y y y y y y y y e         . O O O O O O O O O O O O .         y y y y y y y y y y y     ",
"  m A B v v z z s y y y y y y y y y y y y y y y y y y y =         O O O O O O O O O O O O O o         2 y y y y y y y y y y q   ",
"f B b c z d a u e e e e e e e e e e e e e e e e e e y q         X O O O O O O O O O O O O O O X         w y e e e e e e e e y > ",
"                                                                                                                                ",
"                                                                                                                                ",
"                                                                                                                                ",
"                                                                                                                                ",
"                                                                                                                                ",
"                                                                                                                                "
};
