/* XPM */
static char *_5ccaad6e4f64478d980e26f1c5425a9[] = {
/* columns rows colors chars-per-pixel */
"16 16 68 1 ",
"  c None",
". c #33312F",
"X c #313131",
"o c #333130",
"O c gray20",
"+ c #006EDB",
"@ c #006EDC",
"# c #006EDD",
"$ c #006FDE",
"% c #016FDE",
"& c #0270DE",
"* c #0070E0",
"= c #0071E2",
"- c #0071E3",
"; c #0673E1",
": c #0072E4",
"> c #0172E4",
", c #0072E5",
"< c #0073E5",
"1 c #0273E4",
"2 c #0073E6",
"3 c #0074E7",
"4 c #0174E7",
"5 c #0274E7",
"6 c #0574E4",
"7 c #0475E6",
"8 c #0776E6",
"9 c #0B78E5",
"0 c #0376E9",
"q c #0477EA",
"w c #0578EB",
"e c #0779EA",
"r c #0679EC",
"t c #077AED",
"y c #097AEB",
"u c #087AEC",
"i c #087AED",
"p c #097CEF",
"a c #0A7CEF",
"s c #0F7EEE",
"d c #0E7EEF",
"f c #0A7DF0",
"g c #0B7EF0",
"h c #0E7FF1",
"j c #0C7FF2",
"k c #0E80F3",
"l c #1482F0",
"z c #1683F1",
"x c #1082F5",
"c c #1283F4",
"v c #1283F5",
"b c #1183F6",
"n c #1284F7",
"m c #1484F5",
"M c #1485F7",
"N c #1988F7",
"B c #1486F9",
"V c #1688FB",
"C c #1988F9",
"Z c #1888FA",
"A c #1A89FA",
"S c #188AFD",
"D c #198BFD",
"F c #1A8BFD",
"G c #198BFE",
"H c #1A8BFE",
"J c #1A8CFE",
"K c #1A8CFF",
/* pixels */
"                ",
"                ",
"       FF       ",
"      NKJ       ",
"      HKC       ",
"     AKD mc     ",
"     GSz bk     ",
"    ZVM hjae    ",
"   lBn 9fiw0%   ",
"   vxd ur7>2:   ",
"  skg 6q5  22*  ",
"  gp8 53-  ,2<  ",
" ytw1:22 o. 22= ",
";w04222# OO *22+",
" &@++@#  XX  $# ",
"                "
};
